<svg width="20" height="21" viewBox="0 0 20 21" fill="none" xmlns="http://www.w3.org/2000/svg">
<path d="M16.993 8.108C17.376 8.508 17.68 8.971 17.886 9.476C18.3014 10.49 18.3036 11.6264 17.892 12.642C17.6852 13.151 17.3842 13.6165 17.005 14.014C16.3191 14.734 15.5811 15.4025 14.797 16.014C14.007 16.6302 13.1731 17.188 12.302 17.683C10.5419 18.68 8.64893 19.4214 6.67996 19.885C5.66381 20.1272 4.59394 19.9832 3.67796 19.481C3.23205 19.236 2.83725 18.9077 2.51496 18.514C2.19919 18.1267 1.96301 17.6808 1.81996 17.202C0.620961 13.3 0.797961 8.89 1.95396 4.972C2.56296 2.915 4.59696 1.623 6.69096 2.098C10.571 2.978 14.211 5.245 16.993 8.108Z" stroke="#44337a" stroke-width="2" stroke-linecap="round" stroke-linejoin="round"/>
<path d="M11.044 12.034C11.714 11.529 11.714 10.545 11.044 10.024C10.5666 9.64554 10.0664 9.29688 9.54604 8.97999C9.02329 8.66046 8.48237 8.37164 7.92604 8.11499C7.15604 7.76499 6.29604 8.254 6.17304 9.088C5.98391 10.3411 5.95032 11.6127 6.07304 12.874C6.0896 13.0685 6.15214 13.2563 6.25552 13.4219C6.3589 13.5875 6.50016 13.7262 6.66765 13.8265C6.83514 13.9268 7.02407 13.9859 7.21887 13.9988C7.41366 14.0118 7.60875 13.9782 7.78804 13.901C8.36973 13.6616 8.93554 13.3854 9.48204 13.074C10.0245 12.7631 10.5463 12.4174 11.044 12.039V12.034Z" stroke="#44337a" stroke-width="2" stroke-linecap="round" stroke-linejoin="round"/>
</svg>
