<svg width="18" height="19" viewBox="0 0 18 19" fill="none" xmlns="http://www.w3.org/2000/svg">
<path d="M12.501 5.5H13.501V9.2H12.501V5.5ZM6.69982 18.3H4.50098V16.4V15.9H4.00098H0.500977V3.29769L1.63754 0.5H17.501V11.4929L13.0939 15.9H9.40098H9.19982L9.05471 16.0393L6.69982 18.3ZM1.50098 14.4L1.50102 14.9H2.00098H5.50098V16.8V17.3H6.00098H6.09598H6.29713L6.44224 17.1607L8.79713 14.9H12.473H12.6801L12.8266 14.7535L16.3536 11.2255L16.5 11.0791V10.872V2V1.5H16H1.99998H1.49994L1.49998 2.00004L1.50098 14.4ZM7.50098 5.5H8.50098V9.2H7.50098V5.5Z" fill="black" stroke="#44337a"/>
</svg>
