<svg width="21" height="16" viewBox="0 0 21 16" fill="none" xmlns="http://www.w3.org/2000/svg">
<path d="M21 8.06895C21 8.12312 21 8.18467 20.9977 8.25608C20.9953 8.45553 20.9906 8.67959 20.9859 8.91844C20.9672 9.60542 20.9344 10.2899 20.8828 10.9351C20.8125 11.8239 20.7094 12.5651 20.5687 13.1216C20.4204 13.7023 20.1295 14.232 19.7252 14.6576C19.3209 15.0832 18.8173 15.3899 18.2648 15.5469C17.6016 15.7341 16.3031 15.8498 14.475 15.9212C13.6055 15.9557 12.675 15.9778 11.7445 15.9902C11.4187 15.9951 11.1164 15.9975 10.8445 16H10.1555C9.88359 15.9975 9.58125 15.9951 9.25547 15.9902C8.325 15.9778 7.39453 15.9557 6.525 15.9212C4.69687 15.8473 3.39609 15.7316 2.73516 15.5469C2.1825 15.3902 1.67876 15.0837 1.2744 14.658C0.870044 14.2323 0.579282 13.7025 0.43125 13.1216C0.288281 12.5651 0.1875 11.8239 0.117188 10.9351C0.065625 10.2899 0.0328125 9.60542 0.0140625 8.91844C0.00703121 8.67959 0.00468746 8.45553 0.00234371 8.25608C0.00234371 8.18467 0 8.12312 0 8.06895V7.93106C0 7.87689 -3.57977e-08 7.81533 0.00234371 7.74392C0.00468746 7.54448 0.00937496 7.32041 0.0140625 7.08157C0.0328125 6.39458 0.065625 5.71007 0.117188 5.06494C0.1875 4.17606 0.290625 3.4349 0.43125 2.87842C0.73125 1.69899 1.6125 0.768237 2.73516 0.453064C3.39609 0.265929 4.69687 0.150202 6.525 0.0787959C7.39453 0.0443237 8.325 0.0221619 9.25547 0.00985037C9.58125 0.00492578 9.88359 0.00246289 10.1555 5.89572e-07H10.8445C11.1164 0.00246289 11.4187 0.00492578 11.7445 0.00985037C12.675 0.0221619 13.6055 0.0443237 14.475 0.0787959C16.3031 0.152665 17.6039 0.268391 18.2648 0.453064C19.3875 0.768237 20.2687 1.69652 20.5687 2.87842C20.7117 3.4349 20.8125 4.17606 20.8828 5.06494C20.9344 5.71007 20.9672 6.39458 20.9859 7.08157C20.993 7.32041 20.9953 7.54448 20.9977 7.74392C20.9977 7.81533 21 7.87689 21 7.93106V8.06895ZM19.3125 7.94091C19.3125 7.8892 19.3125 7.83256 19.3102 7.76608C19.3078 7.57402 19.3031 7.36227 19.2984 7.13327C19.282 6.4783 19.2492 5.82333 19.2 5.21515C19.1367 4.42229 19.0477 3.77224 18.9375 3.33641C18.7922 2.76762 18.3656 2.31702 17.8266 2.16682C17.3344 2.02893 16.0945 1.91813 14.4094 1.85165C13.5562 1.81718 12.6375 1.79501 11.7211 1.7827C11.4 1.77778 11.1023 1.77532 10.8352 1.77532H10.1648L9.27891 1.7827C8.3625 1.79501 7.44609 1.81718 6.59063 1.85165C4.90547 1.92059 3.66328 2.02893 3.17344 2.16682C2.63437 2.31948 2.20781 2.76762 2.0625 3.33641C1.95234 3.77224 1.86328 4.42229 1.8 5.21515C1.75078 5.82333 1.72031 6.4783 1.70156 7.13327C1.69453 7.36227 1.69219 7.57649 1.68984 7.76608C1.68984 7.83256 1.6875 7.89166 1.6875 7.94091V8.0591C1.6875 8.1108 1.6875 8.16744 1.68984 8.23392C1.69219 8.42598 1.69688 8.63774 1.70156 8.86673C1.71797 9.5217 1.75078 10.1767 1.8 10.7849C1.86328 11.5777 1.95234 12.2278 2.0625 12.6636C2.20781 13.2324 2.63437 13.683 3.17344 13.8332C3.66562 13.9711 4.90547 14.0819 6.59063 14.1484C7.44375 14.1828 8.3625 14.205 9.27891 14.2173C9.6 14.2222 9.89766 14.2247 10.1648 14.2247H10.8352L11.7211 14.2173C12.6375 14.205 13.5539 14.1828 14.4094 14.1484C16.0945 14.0794 17.3367 13.9711 17.8266 13.8332C18.3656 13.6805 18.7922 13.2324 18.9375 12.6636C19.0477 12.2278 19.1367 11.5777 19.2 10.7849C19.2492 10.1767 19.2797 9.5217 19.2984 8.86673C19.3055 8.63774 19.3078 8.42352 19.3102 8.23392C19.3102 8.16744 19.3125 8.10834 19.3125 8.0591V7.94091ZM8.41406 4.70052L13.8516 8.02462L8.41406 11.2995V4.70052Z" fill="#44337a"/>
</svg>
